<svg fill="#FFFFFF" height="24" viewBox="0 0 24 24" width="24" xmlns="http://www.w3.org/2000/svg">
  <path d="M6.4996 6.5C6.4996 7.19036 7.05924 7.75 7.7496 7.75C8.43996 7.75 8.9996 7.19036 8.9996 6.5C8.9996 5.80964 8.43996 5.25 7.7496 5.25C7.05924 5.25 6.4996 5.80964 6.4996 6.5ZM13.492 2.89817C12.8875 2.32164 12.0842 2 11.249 2H5.75011C4.23134 2 2.9996 3.23122 2.9996 4.75V9.70264C2.9996 10.5737 3.34923 11.4083 3.97009 12.0192L10.9155 18.8535C11.7947 19.7186 13.2065 19.7146 14.0808 18.8445L20.3374 12.6177C21.2345 11.7249 21.219 10.2682 20.3031 9.39468L13.492 2.89817ZM11.249 3.5C11.6987 3.5 12.1312 3.67319 12.4567 3.98363L19.2682 10.4801C19.5735 10.7713 19.5787 11.2569 19.2797 11.5545L13.0231 17.7813C12.7316 18.0713 12.2610 18.0727 11.9679 17.7843L5.02252 10.95C4.68815 10.621 4.49995 10.1717 4.49995 9.70264V4.75C4.49995 4.05964 5.05959 3.5 5.75011 3.5H11.249ZM2.26989 12.732L3.74499 14.1834C3.78477 14.2377 3.82944 14.2894 3.87901 14.3381L9.21235 19.5665C9.42195 19.772 9.65239 19.9434 9.89686 20.0807C11.1344 20.7802 12.7318 20.6035 13.7871 19.5532L15.7185 17.6311L18.1298 15.2451C18.1685 15.2068 18.2042 15.1666 18.2369 15.1248L19.8657 13.5037C20.1769 14.4607 19.9497 15.5545 19.1848 16.3113L14.8284 20.6221C12.9837 22.4475 10.0154 22.4544 8.16208 20.6377L2.82875 15.4093C2.05506 14.6514 1.82718 13.5543 2.13719 12.5962C2.17999 12.6423 2.22398 12.6876 2.26909 12.732Z" />
</svg>
